<svg width="32" height="32" viewBox="0 0 32 32" fill="none" xmlns="http://www.w3.org/2000/svg">
<rect y="1.52588e-05" width="32" height="32" rx="8" fill="#30A1DB"/>
<path d="M20.6667 13.3333L18.0001 16H20.0001C20.0001 17.0609 19.5787 18.0783 18.8285 18.8284C18.0784 19.5786 17.0609 20 16.0001 20C15.3334 20 14.6867 19.8333 14.1334 19.5333L13.1601 20.5067C13.9801 21.0267 14.9534 21.3333 16.0001 21.3333C17.4146 21.3333 18.7711 20.7714 19.7713 19.7713C20.7715 18.7711 21.3334 17.4145 21.3334 16H23.3334L20.6667 13.3333ZM12.0001 16C12.0001 14.9391 12.4215 13.9217 13.1717 13.1716C13.9218 12.4214 14.9392 12 16.0001 12C16.6667 12 17.3134 12.1667 17.8667 12.4667L18.8401 11.4933C18.0201 10.9733 17.0467 10.6667 16.0001 10.6667C14.5856 10.6667 13.229 11.2286 12.2288 12.2288C11.2287 13.229 10.6667 14.5855 10.6667 16H8.66675L11.3334 18.6667L14.0001 16" fill="white"/>
</svg>
