<svg width="93" height="20" viewBox="0 0 93 20" fill="none" xmlns="http://www.w3.org/2000/svg">
<path d="M6.66667 13.3333V6.66667H13.3333V13.3333C15.1014 13.3333 16.7971 12.631 18.0474 11.3807C19.2976 10.1305 20 8.43478 20 6.66667C20 4.89856 19.2976 3.20286 18.0474 1.95262C16.7971 0.702379 15.1014 0 13.3333 0L6.66667 0C4.89856 0 3.20286 0.702379 1.95262 1.95262C0.702379 3.20286 0 4.89856 0 6.66667L0 13.3333C0 15.1014 0.702379 16.7971 1.95262 18.0474C3.20286 19.2976 4.89856 20 6.66667 20C8.43478 20 10.1305 19.2976 11.3807 18.0474C12.631 16.7971 13.3333 15.1014 13.3333 13.3333H6.66667Z" fill="white" fill-opacity="0.25"/>
<path d="M16.6666 20C18.5075 20 19.9999 18.5077 19.9999 16.6667C19.9999 14.8258 18.5075 13.3334 16.6666 13.3334C14.8256 13.3334 13.3333 14.8258 13.3333 16.6667C13.3333 18.5077 14.8256 20 16.6666 20Z" fill="white" fill-opacity="0.25"/>
<path d="M43.662 16.48C43.3353 16.8627 42.9527 17.152 42.514 17.348C42.0847 17.544 41.6133 17.642 41.1 17.642C40.428 17.642 39.812 17.488 39.252 17.18C38.692 16.8813 38.0527 16.3587 37.334 15.612C36.4287 15.5373 35.6167 15.276 34.898 14.828C34.1793 14.3707 33.6193 13.778 33.218 13.05C32.8167 12.3127 32.616 11.496 32.616 10.6C32.616 9.648 32.8447 8.78933 33.302 8.024C33.7593 7.24933 34.3893 6.64733 35.192 6.218C35.9947 5.77933 36.8953 5.56 37.894 5.56C38.8927 5.56 39.7933 5.77933 40.596 6.218C41.3987 6.64733 42.0287 7.24467 42.486 8.01C42.9433 8.77533 43.172 9.63867 43.172 10.6C43.172 11.3747 43.018 12.0933 42.71 12.756C42.402 13.4093 41.9727 13.9693 41.422 14.436C40.8713 14.8933 40.232 15.2247 39.504 15.43C39.7747 15.7193 40.0407 15.9293 40.302 16.06C40.5633 16.1907 40.8433 16.256 41.142 16.256C41.786 16.256 42.346 15.9947 42.822 15.472L43.662 16.48ZM34.45 10.6C34.45 11.2533 34.5993 11.846 34.898 12.378C35.1967 12.9007 35.6073 13.3113 36.13 13.61C36.6527 13.8993 37.2407 14.044 37.894 14.044C38.5473 14.044 39.1353 13.8993 39.658 13.61C40.1807 13.3113 40.5913 12.9007 40.89 12.378C41.1887 11.846 41.338 11.2533 41.338 10.6C41.338 9.94667 41.1887 9.35867 40.89 8.836C40.5913 8.304 40.1807 7.89333 39.658 7.604C39.1353 7.30533 38.5473 7.156 37.894 7.156C37.2407 7.156 36.6527 7.30533 36.13 7.604C35.6073 7.89333 35.1967 8.304 34.898 8.836C34.5993 9.35867 34.45 9.94667 34.45 10.6ZM52.1712 8.024V15.5H50.5052V14.548C50.2252 14.884 49.8752 15.1453 49.4552 15.332C49.0352 15.5093 48.5825 15.598 48.0972 15.598C47.0985 15.598 46.3098 15.3227 45.7312 14.772C45.1618 14.212 44.8772 13.386 44.8772 12.294V8.024H46.6272V12.056C46.6272 12.728 46.7765 13.232 47.0752 13.568C47.3832 13.8947 47.8172 14.058 48.3772 14.058C49.0025 14.058 49.4972 13.8667 49.8612 13.484C50.2345 13.092 50.4212 12.532 50.4212 11.804V8.024H52.1712ZM57.3185 7.94C58.4198 7.94 59.2598 8.206 59.8385 8.738C60.4265 9.26067 60.7205 10.054 60.7205 11.118V15.5H59.0685V14.59C58.8538 14.9167 58.5458 15.1687 58.1445 15.346C57.7525 15.514 57.2765 15.598 56.7165 15.598C56.1565 15.598 55.6665 15.5047 55.2465 15.318C54.8265 15.122 54.4998 14.856 54.2665 14.52C54.0425 14.1747 53.9305 13.7873 53.9305 13.358C53.9305 12.686 54.1778 12.1493 54.6725 11.748C55.1765 11.3373 55.9651 11.132 57.0385 11.132H58.9705V11.02C58.9705 10.4973 58.8118 10.096 58.4945 9.816C58.1865 9.536 57.7245 9.396 57.1085 9.396C56.6885 9.396 56.2731 9.46133 55.8625 9.592C55.4611 9.72267 55.1205 9.90467 54.8405 10.138L54.1545 8.864C54.5465 8.56533 55.0178 8.33667 55.5685 8.178C56.1191 8.01933 56.7025 7.94 57.3185 7.94ZM57.0805 14.324C57.5191 14.324 57.9065 14.226 58.2425 14.03C58.5878 13.8247 58.8305 13.5353 58.9705 13.162V12.294H57.1645C56.1565 12.294 55.6525 12.6253 55.6525 13.288C55.6525 13.6053 55.7785 13.8573 56.0305 14.044C56.2825 14.2307 56.6325 14.324 57.0805 14.324ZM64.6324 9.116C65.1364 8.332 66.023 7.94 67.2924 7.94V9.606C67.143 9.578 67.0077 9.564 66.8864 9.564C66.205 9.564 65.673 9.76467 65.2904 10.166C64.9077 10.558 64.7164 11.1273 64.7164 11.874V15.5H62.9664V8.024H64.6324V9.116ZM71.8289 12.294L70.5269 13.526V15.5H68.7769V5.112H70.5269V11.384L74.1529 8.024H76.2529L73.1309 11.16L76.5469 15.5H74.4189L71.8289 12.294ZM84.3908 11.804C84.3908 11.9253 84.3815 12.098 84.3628 12.322H78.4968C78.5995 12.8727 78.8655 13.3113 79.2948 13.638C79.7335 13.9553 80.2748 14.114 80.9188 14.114C81.7402 14.114 82.4168 13.8433 82.9488 13.302L83.8868 14.38C83.5508 14.7813 83.1262 15.0847 82.6128 15.29C82.0995 15.4953 81.5208 15.598 80.8768 15.598C80.0555 15.598 79.3322 15.4347 78.7068 15.108C78.0815 14.7813 77.5962 14.3287 77.2508 13.75C76.9148 13.162 76.7468 12.4993 76.7468 11.762C76.7468 11.034 76.9102 10.3807 77.2368 9.802C77.5728 9.214 78.0348 8.75667 78.6228 8.43C79.2108 8.10333 79.8735 7.94 80.6108 7.94C81.3388 7.94 81.9875 8.10333 82.5568 8.43C83.1355 8.74733 83.5835 9.2 83.9008 9.788C84.2275 10.3667 84.3908 11.0387 84.3908 11.804ZM80.6108 9.34C80.0508 9.34 79.5748 9.508 79.1828 9.844C78.8002 10.1707 78.5668 10.6093 78.4828 11.16H82.7248C82.6502 10.6187 82.4215 10.18 82.0388 9.844C81.6562 9.508 81.1802 9.34 80.6108 9.34ZM92.9351 8.024L89.4351 16.102C89.1084 16.914 88.7118 17.4833 88.2451 17.81C87.7784 18.146 87.2138 18.314 86.5511 18.314C86.1778 18.314 85.8091 18.2533 85.4451 18.132C85.0811 18.0107 84.7824 17.8427 84.5491 17.628L85.2491 16.34C85.4171 16.4987 85.6131 16.6247 85.8371 16.718C86.0704 16.8113 86.3038 16.858 86.5371 16.858C86.8451 16.858 87.0971 16.7787 87.2931 16.62C87.4984 16.4613 87.6851 16.1953 87.8531 15.822L87.9791 15.528L84.7171 8.024H86.5371L88.8891 13.554L91.2551 8.024H92.9351Z" fill="white"/>
</svg>
