<svg width="16" height="10" viewBox="0 0 16 10" fill="none" xmlns="http://www.w3.org/2000/svg">
<path d="M8 3C8.53043 3 9.03914 3.21071 9.41421 3.58579C9.78928 3.96086 10 4.46957 10 5C10 5.53043 9.78928 6.03914 9.41421 6.41421C9.03914 6.78929 8.53043 7 8 7C7.46956 7 6.96086 6.78929 6.58578 6.41421C6.21071 6.03914 6 5.53043 6 5C6 4.46957 6.21071 3.96086 6.58578 3.58579C6.96086 3.21071 7.46956 3 8 3ZM8 0C11.3333 0 14.18 2.07333 15.3333 5C14.18 7.92667 11.3333 10 8 10C4.66666 10 1.82 7.92667 0.666664 5C1.82 2.07333 4.66666 0 8 0ZM2.12 5C3.22 7.24 5.49333 8.66667 8 8.66667C10.5067 8.66667 12.78 7.24 13.88 5C12.78 2.76 10.5067 1.33333 8 1.33333C5.49333 1.33333 3.22 2.76 2.12 5Z" fill="#353648"/>
</svg>
